  0
SECTION
  2
HEADER
  9
$ACADVER
  1
AC1009
  9
$INSBASE
 10
0.0
 20
0.0
 30
0.0
  9
$EXTMIN
 10
0.0
 20
0.0
 30
0.0
  9
$EXTMAX
 10
0.0
 20
0.0
 30
0.0
  0
ENDSEC
  0
SECTION
  2
TABLES
  0
TABLE
  2
VPORT
 70
0
  0
ENDTAB
  0
TABLE
  2
LTYPE
 70
1
  0
LTYPE
  2
CONTINUOUS
 70
0
  3
Solid line
 72
65
 73
0
 40
0.0
  0
ENDTAB
  0
TABLE
  2
LAYER
 70
1
  0
LAYER
  2
0
 70
64
 62
7
  6
continuous
  0
ENDTAB
  0
TABLE
  2
STYLE
 70
1
  0
STYLE
  2
STANDARD
 70
0
 40
0
 41
1.0
 50
0.0
 71
0
 42
1
 3
ARIAL.TTF
 4

  0
ENDTAB
  0
TABLE
  2
VIEW
 70
0
  0
ENDTAB
  0
ENDSEC
  0
SECTION
  2
BLOCKS
  0
BLOCK
  8
0
  2
FACEFEAT
 70
0
 10
0.0
 20
0.0
 30
0.0
  3
FACEFEAT
  0
CIRCLE
  8
0
 62
0
 10
-3.99999999999995
 20
-102.0
 30
0.0
 40
1.7
  0
CIRCLE
  8
0
 62
0
 10
-3.99999999999995
 20
-40.0
 30
0.0
 40
1.7
  0
CIRCLE
  8
0
 62
0
 10
165.0
 20
-105.0
 30
0.0
 40
1.70000000000002
  0
CIRCLE
  8
0
 62
0
 10
164.0
 20
-25.0
 30
0.0
 40
1.70000000000002
  0
CIRCLE
  8
0
 62
0
 10
162.0
 20
-50.0
 30
0.0
 40
1.70000000000002
  0
CIRCLE
  8
0
 62
0
 10
30.0
 20
76.0
 30
0.0
 40
1.7
  0
CIRCLE
  8
0
 62
0
 10
-41.0
 20
58.0
 30
0.0
 40
1.7
  0
CIRCLE
  8
0
 62
0
 10
-46.0
 20
18.0
 30
0.0
 40
1.7
  0
CIRCLE
  8
0
 62
0
 10
91.0000000000001
 20
-105.0
 30
0.0
 40
1.7
  0
CIRCLE
  8
0
 62
0
 10
47.0
 20
5.00000000000002
 30
0.0
 40
1.7
  0
LINE
  8
0
 62
0
 10
-185.000002756715
 20
-115.0
 30
0.0
 11
-180.0
 21
-115.0
 31
0.0
  0
LINE
  8
0
 62
0
 10
-185.000002756715
 20
-100.0
 30
0.0
 11
-185.000002756715
 21
-115.0
 31
0.0
  0
LINE
  8
0
 62
0
 10
-180.0
 20
-100.0
 30
0.0
 11
-185.000002756715
 21
-100.0
 31
0.0
  0
LINE
  8
0
 62
0
 10
-180.0
 20
-85.0
 30
0.0
 11
-180.0
 21
-100.0
 31
0.0
  0
LINE
  8
0
 62
0
 10
-185.000002756715
 20
-85.0
 30
0.0
 11
-180.0
 21
-85.0
 31
0.0
  0
LINE
  8
0
 62
0
 10
-185.000002756715
 20
-70.0
 30
0.0
 11
-185.000002756715
 21
-85.0
 31
0.0
  0
LINE
  8
0
 62
0
 10
-180.0
 20
-70.0
 30
0.0
 11
-185.000002756715
 21
-70.0
 31
0.0
  0
LINE
  8
0
 62
0
 10
-180.0
 20
-55.0
 30
0.0
 11
-180.0
 21
-70.0
 31
0.0
  0
LINE
  8
0
 62
0
 10
-185.000002756715
 20
-55.0
 30
0.0
 11
-180.0
 21
-55.0
 31
0.0
  0
LINE
  8
0
 62
0
 10
-185.000002756715
 20
-40.0
 30
0.0
 11
-185.000002756715
 21
-55.0
 31
0.0
  0
LINE
  8
0
 62
0
 10
-180.0
 20
-40.0
 30
0.0
 11
-185.000002756715
 21
-40.0
 31
0.0
  0
LINE
  8
0
 62
0
 10
-180.0
 20
-25.0
 30
0.0
 11
-180.0
 21
-40.0
 31
0.0
  0
LINE
  8
0
 62
0
 10
-185.000002756715
 20
-25.0
 30
0.0
 11
-180.0
 21
-25.0
 31
0.0
  0
LINE
  8
0
 62
0
 10
-185.000002756715
 20
-9.99999999999998
 30
0.0
 11
-185.000002756715
 21
-25.0
 31
0.0
  0
LINE
  8
0
 62
0
 10
-180.0
 20
-9.99999999999998
 30
0.0
 11
-185.000002756715
 21
-9.99999999999998
 31
0.0
  0
LINE
  8
0
 62
0
 10
-180.0
 20
5.00000000000002
 30
0.0
 11
-180.0
 21
-9.999999999999979
 31
0.0
  0
LINE
  8
0
 62
0
 10
-185.000002756715
 20
5.00000000000002
 30
0.0
 11
-180.0
 21
5.00000000000002
 31
0.0
  0
LINE
  8
0
 62
0
 10
-185.000002756715
 20
20.0
 30
0.0
 11
-185.000002756715
 21
5.00000000000002
 31
0.0
  0
LINE
  8
0
 62
0
 10
-180.0
 20
20.0
 30
0.0
 11
-185.000002756715
 21
20.0
 31
0.0
  0
LINE
  8
0
 62
0
 10
-180.0
 20
35.0
 30
0.0
 11
-180.0
 21
20.0
 31
0.0
  0
LINE
  8
0
 62
0
 10
-185.000002756715
 20
35.0
 30
0.0
 11
-180.0
 21
35.0
 31
0.0
  0
LINE
  8
0
 62
0
 10
-185.000002756715
 20
50.0
 30
0.0
 11
-185.000002756715
 21
35.0
 31
0.0
  0
LINE
  8
0
 62
0
 10
-180.0
 20
50.0
 30
0.0
 11
-185.000002756715
 21
50.0
 31
0.0
  0
LINE
  8
0
 62
0
 10
-180.0
 20
65.0
 30
0.0
 11
-180.0
 21
50.0
 31
0.0
  0
LINE
  8
0
 62
0
 10
-185.000002756715
 20
65.0
 30
0.0
 11
-180.0
 21
65.0
 31
0.0
  0
LINE
  8
0
 62
0
 10
-185.000002756715
 20
80.0
 30
0.0
 11
-185.000002756715
 21
65.0
 31
0.0
  0
LINE
  8
0
 62
0
 10
-180.0
 20
80.0
 30
0.0
 11
-185.000002756715
 21
80.0
 31
0.0
  0
LINE
  8
0
 62
0
 10
-180.0
 20
95.0
 30
0.0
 11
-180.0
 21
80.0
 31
0.0
  0
LINE
  8
0
 62
0
 10
-185.000002756715
 20
95.0
 30
0.0
 11
-180.0
 21
95.0
 31
0.0
  0
LINE
  8
0
 62
0
 10
-185.000002756715
 20
110.0
 30
0.0
 11
-185.000002756715
 21
95.0
 31
0.0
  0
LINE
  8
0
 62
0
 10
-180.0
 20
110.0
 30
0.0
 11
-185.000002756715
 21
110.0
 31
0.0
  0
LINE
  8
0
 62
0
 10
-180.0
 20
120.0
 30
0.0
 11
-180.0
 21
110.0
 31
0.0
  0
LINE
  8
0
 62
0
 10
-165.0
 20
120.0
 30
0.0
 11
-180.0
 21
120.0
 31
0.0
  0
LINE
  8
0
 62
0
 10
-165.0
 20
115.0
 30
0.0
 11
-165.0
 21
120.0
 31
0.0
  0
LINE
  8
0
 62
0
 10
-150.0
 20
115.0
 30
0.0
 11
-165.0
 21
115.0
 31
0.0
  0
LINE
  8
0
 62
0
 10
-150.0
 20
120.0
 30
0.0
 11
-150.0
 21
115.0
 31
0.0
  0
LINE
  8
0
 62
0
 10
-135.0
 20
120.0
 30
0.0
 11
-150.0
 21
120.0
 31
0.0
  0
LINE
  8
0
 62
0
 10
-135.0
 20
115.0
 30
0.0
 11
-135.0
 21
120.0
 31
0.0
  0
LINE
  8
0
 62
0
 10
-120.0
 20
115.0
 30
0.0
 11
-135.0
 21
115.0
 31
0.0
  0
LINE
  8
0
 62
0
 10
-120.0
 20
120.0
 30
0.0
 11
-120.0
 21
115.0
 31
0.0
  0
LINE
  8
0
 62
0
 10
-105.0
 20
120.0
 30
0.0
 11
-120.0
 21
120.0
 31
0.0
  0
LINE
  8
0
 62
0
 10
-105.0
 20
115.0
 30
0.0
 11
-105.0
 21
120.0
 31
0.0
  0
LINE
  8
0
 62
0
 10
-90.0
 20
115.0
 30
0.0
 11
-105.0
 21
115.0
 31
0.0
  0
LINE
  8
0
 62
0
 10
-90.0
 20
120.0
 30
0.0
 11
-90.0
 21
115.0
 31
0.0
  0
LINE
  8
0
 62
0
 10
-75.0
 20
120.0
 30
0.0
 11
-90.0
 21
120.0
 31
0.0
  0
LINE
  8
0
 62
0
 10
-75.0
 20
115.0
 30
0.0
 11
-75.0
 21
120.0
 31
0.0
  0
LINE
  8
0
 62
0
 10
-60.0
 20
115.0
 30
0.0
 11
-75.0
 21
115.0
 31
0.0
  0
LINE
  8
0
 62
0
 10
-60.0
 20
120.0
 30
0.0
 11
-60.0
 21
115.0
 31
0.0
  0
LINE
  8
0
 62
0
 10
-45.0
 20
120.0
 30
0.0
 11
-60.0
 21
120.0
 31
0.0
  0
LINE
  8
0
 62
0
 10
-45.0
 20
115.0
 30
0.0
 11
-45.0
 21
120.0
 31
0.0
  0
LINE
  8
0
 62
0
 10
-30.0
 20
115.0
 30
0.0
 11
-45.0
 21
115.0
 31
0.0
  0
LINE
  8
0
 62
0
 10
-30.0
 20
120.0
 30
0.0
 11
-30.0
 21
115.0
 31
0.0
  0
LINE
  8
0
 62
0
 10
-15.0
 20
120.0
 30
0.0
 11
-30.0
 21
120.0
 31
0.0
  0
LINE
  8
0
 62
0
 10
-15.0
 20
115.0
 30
0.0
 11
-15.0
 21
120.0
 31
0.0
  0
LINE
  8
0
 62
0
 10
0.0
 20
115.0
 30
0.0
 11
-15.0
 21
115.0
 31
0.0
  0
LINE
  8
0
 62
0
 10
0.0
 20
120.0
 30
0.0
 11
0.0
 21
115.0
 31
0.0
  0
LINE
  8
0
 62
0
 10
15.0
 20
120.0
 30
0.0
 11
0.0
 21
120.0
 31
0.0
  0
LINE
  8
0
 62
0
 10
15.0
 20
115.0
 30
0.0
 11
15.0
 21
120.0
 31
0.0
  0
LINE
  8
0
 62
0
 10
30.0
 20
115.0
 30
0.0
 11
15.0
 21
115.0
 31
0.0
  0
LINE
  8
0
 62
0
 10
30.0
 20
120.0
 30
0.0
 11
30.0
 21
115.0
 31
0.0
  0
LINE
  8
0
 62
0
 10
45.0
 20
120.0
 30
0.0
 11
30.0
 21
120.0
 31
0.0
  0
LINE
  8
0
 62
0
 10
45.0
 20
115.0
 30
0.0
 11
45.0
 21
120.0
 31
0.0
  0
LINE
  8
0
 62
0
 10
60.0
 20
115.0
 30
0.0
 11
45.0
 21
115.0
 31
0.0
  0
LINE
  8
0
 62
0
 10
60.0
 20
120.0
 30
0.0
 11
60.0
 21
115.0
 31
0.0
  0
LINE
  8
0
 62
0
 10
75.0
 20
120.0
 30
0.0
 11
60.0
 21
120.0
 31
0.0
  0
LINE
  8
0
 62
0
 10
75.0
 20
115.0
 30
0.0
 11
75.0
 21
120.0
 31
0.0
  0
LINE
  8
0
 62
0
 10
90.0
 20
115.0
 30
0.0
 11
75.0
 21
115.0
 31
0.0
  0
LINE
  8
0
 62
0
 10
90.0
 20
120.0
 30
0.0
 11
90.0
 21
115.0
 31
0.0
  0
LINE
  8
0
 62
0
 10
105.0
 20
120.0
 30
0.0
 11
90.0
 21
120.0
 31
0.0
  0
LINE
  8
0
 62
0
 10
105.0
 20
115.0
 30
0.0
 11
105.0
 21
120.0
 31
0.0
  0
LINE
  8
0
 62
0
 10
120.0
 20
115.0
 30
0.0
 11
105.0
 21
115.0
 31
0.0
  0
LINE
  8
0
 62
0
 10
120.0
 20
120.0
 30
0.0
 11
120.0
 21
115.0
 31
0.0
  0
LINE
  8
0
 62
0
 10
135.0
 20
120.0
 30
0.0
 11
120.0
 21
120.0
 31
0.0
  0
LINE
  8
0
 62
0
 10
135.0
 20
115.0
 30
0.0
 11
135.0
 21
120.0
 31
0.0
  0
LINE
  8
0
 62
0
 10
150.0
 20
115.0
 30
0.0
 11
135.0
 21
115.0
 31
0.0
  0
LINE
  8
0
 62
0
 10
150.0
 20
120.0
 30
0.0
 11
150.0
 21
115.0
 31
0.0
  0
LINE
  8
0
 62
0
 10
165.0
 20
120.0
 30
0.0
 11
150.0
 21
120.0
 31
0.0
  0
LINE
  8
0
 62
0
 10
165.0
 20
115.0
 30
0.0
 11
165.0
 21
120.0
 31
0.0
  0
LINE
  8
0
 62
0
 10
180.0
 20
115.00000000000003
 30
0.0
 11
165.0
 21
115.0
 31
0.0
  0
LINE
  8
0
 62
0
 10
179.99999999999997
 20
110.0
 30
0.0
 11
180.0
 21
115.0
 31
0.0
  0
LINE
  8
0
 62
0
 10
185.000002756715
 20
110.0
 30
0.0
 11
180.0
 21
110.0
 31
0.0
  0
LINE
  8
0
 62
0
 10
185.000002756715
 20
95.0
 30
0.0
 11
185.000002756715
 21
110.0
 31
0.0
  0
LINE
  8
0
 62
0
 10
180.0
 20
95.0
 30
0.0
 11
185.000002756715
 21
95.0
 31
0.0
  0
LINE
  8
0
 62
0
 10
180.0
 20
80.0
 30
0.0
 11
180.0
 21
95.0
 31
0.0
  0
LINE
  8
0
 62
0
 10
185.000002756715
 20
80.0
 30
0.0
 11
180.0
 21
80.0
 31
0.0
  0
LINE
  8
0
 62
0
 10
185.000002756715
 20
65.0
 30
0.0
 11
185.000002756715
 21
80.0
 31
0.0
  0
LINE
  8
0
 62
0
 10
180.0
 20
65.0
 30
0.0
 11
185.000002756715
 21
65.0
 31
0.0
  0
LINE
  8
0
 62
0
 10
180.0
 20
50.0
 30
0.0
 11
180.0
 21
65.0
 31
0.0
  0
LINE
  8
0
 62
0
 10
185.000002756715
 20
50.0
 30
0.0
 11
180.0
 21
50.0
 31
0.0
  0
LINE
  8
0
 62
0
 10
185.000002756715
 20
35.0
 30
0.0
 11
185.000002756715
 21
50.0
 31
0.0
  0
LINE
  8
0
 62
0
 10
180.0
 20
35.0
 30
0.0
 11
185.000002756715
 21
35.0
 31
0.0
  0
LINE
  8
0
 62
0
 10
180.0
 20
20.0
 30
0.0
 11
180.0
 21
35.0
 31
0.0
  0
LINE
  8
0
 62
0
 10
185.000002756715
 20
20.0
 30
0.0
 11
180.0
 21
20.0
 31
0.0
  0
LINE
  8
0
 62
0
 10
185.000002756715
 20
5.00000000000002
 30
0.0
 11
185.000002756715
 21
20.0
 31
0.0
  0
LINE
  8
0
 62
0
 10
180.0
 20
5.00000000000002
 30
0.0
 11
185.000002756715
 21
5.00000000000002
 31
0.0
  0
LINE
  8
0
 62
0
 10
180.0
 20
-9.999999999999979
 30
0.0
 11
180.0
 21
5.00000000000002
 31
0.0
  0
LINE
  8
0
 62
0
 10
185.000002756715
 20
-9.99999999999998
 30
0.0
 11
180.0
 21
-9.99999999999998
 31
0.0
  0
LINE
  8
0
 62
0
 10
185.000002756715
 20
-25.0
 30
0.0
 11
185.000002756715
 21
-9.99999999999998
 31
0.0
  0
LINE
  8
0
 62
0
 10
180.0
 20
-25.0
 30
0.0
 11
185.000002756715
 21
-25.0
 31
0.0
  0
LINE
  8
0
 62
0
 10
180.0
 20
-40.0
 30
0.0
 11
180.0
 21
-25.0
 31
0.0
  0
LINE
  8
0
 62
0
 10
185.000002756715
 20
-40.0
 30
0.0
 11
180.0
 21
-40.0
 31
0.0
  0
LINE
  8
0
 62
0
 10
185.000002756715
 20
-55.0
 30
0.0
 11
185.000002756715
 21
-40.0
 31
0.0
  0
LINE
  8
0
 62
0
 10
180.0
 20
-55.0
 30
0.0
 11
185.000002756715
 21
-55.0
 31
0.0
  0
LINE
  8
0
 62
0
 10
180.0
 20
-70.0
 30
0.0
 11
180.0
 21
-55.0
 31
0.0
  0
LINE
  8
0
 62
0
 10
185.000002756715
 20
-70.0
 30
0.0
 11
180.0
 21
-70.0
 31
0.0
  0
LINE
  8
0
 62
0
 10
185.000002756715
 20
-85.0
 30
0.0
 11
185.000002756715
 21
-70.0
 31
0.0
  0
LINE
  8
0
 62
0
 10
180.0
 20
-85.0
 30
0.0
 11
185.000002756715
 21
-85.0
 31
0.0
  0
LINE
  8
0
 62
0
 10
180.0
 20
-100.0
 30
0.0
 11
180.0
 21
-85.0
 31
0.0
  0
LINE
  8
0
 62
0
 10
185.000002756715
 20
-100.0
 30
0.0
 11
180.0
 21
-100.0
 31
0.0
  0
LINE
  8
0
 62
0
 10
185.000002756715
 20
-115.0
 30
0.0
 11
185.000002756715
 21
-100.0
 31
0.0
  0
LINE
  8
0
 62
0
 10
165.0
 20
-115.0
 30
0.0
 11
185.000002756715
 21
-115.00000000000004
 31
0.0
  0
LINE
  8
0
 62
0
 10
165.0
 20
-120.0
 30
0.0
 11
165.0
 21
-115.0
 31
0.0
  0
LINE
  8
0
 62
0
 10
150.0
 20
-120.0
 30
0.0
 11
165.0
 21
-120.0
 31
0.0
  0
LINE
  8
0
 62
0
 10
150.0
 20
-115.0
 30
0.0
 11
150.0
 21
-120.0
 31
0.0
  0
LINE
  8
0
 62
0
 10
135.0
 20
-115.0
 30
0.0
 11
150.0
 21
-115.0
 31
0.0
  0
LINE
  8
0
 62
0
 10
135.0
 20
-120.0
 30
0.0
 11
135.0
 21
-115.0
 31
0.0
  0
LINE
  8
0
 62
0
 10
120.0
 20
-120.0
 30
0.0
 11
135.0
 21
-120.0
 31
0.0
  0
LINE
  8
0
 62
0
 10
120.0
 20
-115.0
 30
0.0
 11
120.0
 21
-120.0
 31
0.0
  0
LINE
  8
0
 62
0
 10
105.0
 20
-115.0
 30
0.0
 11
120.0
 21
-115.0
 31
0.0
  0
LINE
  8
0
 62
0
 10
105.0
 20
-120.0
 30
0.0
 11
105.0
 21
-115.0
 31
0.0
  0
LINE
  8
0
 62
0
 10
90.0
 20
-120.0
 30
0.0
 11
105.0
 21
-120.0
 31
0.0
  0
LINE
  8
0
 62
0
 10
90.0
 20
-115.0
 30
0.0
 11
90.0
 21
-120.0
 31
0.0
  0
LINE
  8
0
 62
0
 10
75.0
 20
-115.0
 30
0.0
 11
90.0
 21
-115.0
 31
0.0
  0
LINE
  8
0
 62
0
 10
75.0
 20
-120.0
 30
0.0
 11
75.0
 21
-115.0
 31
0.0
  0
LINE
  8
0
 62
0
 10
60.0
 20
-120.0
 30
0.0
 11
75.0
 21
-120.0
 31
0.0
  0
LINE
  8
0
 62
0
 10
60.0
 20
-115.0
 30
0.0
 11
60.0
 21
-120.0
 31
0.0
  0
LINE
  8
0
 62
0
 10
45.0
 20
-115.0
 30
0.0
 11
60.0
 21
-115.0
 31
0.0
  0
LINE
  8
0
 62
0
 10
45.0
 20
-120.0
 30
0.0
 11
45.0
 21
-115.0
 31
0.0
  0
LINE
  8
0
 62
0
 10
30.0
 20
-120.0
 30
0.0
 11
45.0
 21
-120.0
 31
0.0
  0
LINE
  8
0
 62
0
 10
30.0
 20
-115.0
 30
0.0
 11
30.0
 21
-120.0
 31
0.0
  0
LINE
  8
0
 62
0
 10
15.0
 20
-115.0
 30
0.0
 11
30.0
 21
-115.0
 31
0.0
  0
LINE
  8
0
 62
0
 10
15.0
 20
-120.0
 30
0.0
 11
15.0
 21
-115.0
 31
0.0
  0
LINE
  8
0
 62
0
 10
0.0
 20
-120.0
 30
0.0
 11
15.0
 21
-120.0
 31
0.0
  0
LINE
  8
0
 62
0
 10
0.0
 20
-115.0
 30
0.0
 11
0.0
 21
-120.0
 31
0.0
  0
LINE
  8
0
 62
0
 10
-15.0
 20
-115.0
 30
0.0
 11
0.0
 21
-115.0
 31
0.0
  0
LINE
  8
0
 62
0
 10
-15.0
 20
-120.0
 30
0.0
 11
-15.0
 21
-115.0
 31
0.0
  0
LINE
  8
0
 62
0
 10
-30.0
 20
-120.0
 30
0.0
 11
-15.0
 21
-120.0
 31
0.0
  0
LINE
  8
0
 62
0
 10
-30.0
 20
-115.0
 30
0.0
 11
-30.0
 21
-120.0
 31
0.0
  0
LINE
  8
0
 62
0
 10
-45.0
 20
-115.0
 30
0.0
 11
-30.0
 21
-115.0
 31
0.0
  0
LINE
  8
0
 62
0
 10
-45.0
 20
-120.0
 30
0.0
 11
-45.0
 21
-115.0
 31
0.0
  0
LINE
  8
0
 62
0
 10
-60.0
 20
-120.0
 30
0.0
 11
-45.0
 21
-120.0
 31
0.0
  0
LINE
  8
0
 62
0
 10
-60.0
 20
-115.0
 30
0.0
 11
-60.0
 21
-120.0
 31
0.0
  0
LINE
  8
0
 62
0
 10
-75.0
 20
-115.0
 30
0.0
 11
-60.0
 21
-115.0
 31
0.0
  0
LINE
  8
0
 62
0
 10
-75.0
 20
-120.0
 30
0.0
 11
-75.0
 21
-115.0
 31
0.0
  0
LINE
  8
0
 62
0
 10
-90.0
 20
-120.0
 30
0.0
 11
-75.0
 21
-120.0
 31
0.0
  0
LINE
  8
0
 62
0
 10
-90.0
 20
-115.0
 30
0.0
 11
-90.0
 21
-120.0
 31
0.0
  0
LINE
  8
0
 62
0
 10
-105.0
 20
-115.0
 30
0.0
 11
-90.0
 21
-115.0
 31
0.0
  0
LINE
  8
0
 62
0
 10
-105.0
 20
-120.0
 30
0.0
 11
-105.0
 21
-115.0
 31
0.0
  0
LINE
  8
0
 62
0
 10
-120.0
 20
-120.0
 30
0.0
 11
-105.0
 21
-120.0
 31
0.0
  0
LINE
  8
0
 62
0
 10
-120.0
 20
-115.0
 30
0.0
 11
-120.0
 21
-120.0
 31
0.0
  0
LINE
  8
0
 62
0
 10
-135.0
 20
-115.0
 30
0.0
 11
-120.0
 21
-115.0
 31
0.0
  0
LINE
  8
0
 62
0
 10
-135.0
 20
-120.0
 30
0.0
 11
-135.0
 21
-115.0
 31
0.0
  0
LINE
  8
0
 62
0
 10
-150.0
 20
-120.0
 30
0.0
 11
-135.0
 21
-120.0
 31
0.0
  0
LINE
  8
0
 62
0
 10
-150.0
 20
-115.0
 30
0.0
 11
-150.0
 21
-120.0
 31
0.0
  0
LINE
  8
0
 62
0
 10
-165.0
 20
-115.0
 30
0.0
 11
-150.0
 21
-115.0
 31
0.0
  0
LINE
  8
0
 62
0
 10
-165.0
 20
-120.0
 30
0.0
 11
-165.0
 21
-115.0
 31
0.0
  0
LINE
  8
0
 62
0
 10
-180.0
 20
-120.0
 30
0.0
 11
-165.0
 21
-120.0
 31
0.0
  0
LINE
  8
0
 62
0
 10
-180.0
 20
-115.0
 30
0.0
 11
-180.00000000000003
 21
-120.0
 31
0.0
  0
ENDBLK
  0
ENDSEC
  0
SECTION
  2
ENTITIES
  0
INSERT
  2
FACEFEAT
  8
0
 62
0
 10
0.0
 20
0.0
 30
0.0
  0
ENDSEC
  0
EOF
