  0
SECTION
  2
HEADER
  9
$ACADVER
  1
AC1009
  9
$INSBASE
 10
0.0
 20
0.0
 30
0.0
  9
$EXTMIN
 10
0.0
 20
0.0
 30
0.0
  9
$EXTMAX
 10
0.0
 20
0.0
 30
0.0
  0
ENDSEC
  0
SECTION
  2
TABLES
  0
TABLE
  2
VPORT
 70
0
  0
ENDTAB
  0
TABLE
  2
LTYPE
 70
1
  0
LTYPE
  2
CONTINUOUS
 70
0
  3
Solid line
 72
65
 73
0
 40
0.0
  0
ENDTAB
  0
TABLE
  2
LAYER
 70
1
  0
LAYER
  2
0
 70
64
 62
7
  6
continuous
  0
ENDTAB
  0
TABLE
  2
STYLE
 70
1
  0
STYLE
  2
STANDARD
 70
0
 40
0
 41
1.0
 50
0.0
 71
0
 42
1
 3
ARIAL.TTF
 4

  0
ENDTAB
  0
TABLE
  2
VIEW
 70
0
  0
ENDTAB
  0
ENDSEC
  0
SECTION
  2
BLOCKS
  0
BLOCK
  8
0
  2
FACEFEAT
 70
0
 10
0.0
 20
0.0
 30
0.0
  3
FACEFEAT
  0
LINE
  8
0
 62
0
 10
45.0
 20
60.0
 30
0.0
 11
40.0
 21
60.0
 31
0.0
  0
LINE
  8
0
 62
0
 10
45.0
 20
100.0
 30
0.0
 11
45.0
 21
60.0
 31
0.0
  0
LINE
  8
0
 62
0
 10
40.0
 20
100.0
 30
0.0
 11
45.0
 21
100.0
 31
0.0
  0
LINE
  8
0
 62
0
 10
40.0
 20
60.0
 30
0.0
 11
40.0
 21
100.0
 31
0.0
  0
LINE
  8
0
 62
0
 10
40.0
 20
-25.0
 30
0.0
 11
40.0
 21
25.000000372529
 31
0.0
  0
LINE
  8
0
 62
0
 10
45.0
 20
-25.0
 30
0.0
 11
40.0
 21
-25.0
 31
0.0
  0
LINE
  8
0
 62
0
 10
45.0
 20
25.0
 30
0.0
 11
45.0
 21
-25.0
 31
0.0
  0
LINE
  8
0
 62
0
 10
40.0
 20
25.00000037252907
 30
0.0
 11
45.0
 21
25.00000000000004
 31
0.0
  0
LINE
  8
0
 62
0
 10
45.0000006705523
 20
-60.0000008940697
 30
0.0
 11
45.0000006705523
 21
-100.000001490116
 31
0.0
  0
LINE
  8
0
 62
0
 10
40.0000005960464
 20
-60.0000008940697
 30
0.0
 11
45.0000006705523
 21
-60.0000008940697
 31
0.0
  0
LINE
  8
0
 62
0
 10
40.0000005960464
 20
-100.000001490116
 30
0.0
 11
40.0000005960464
 21
-60.0000008940697
 31
0.0
  0
LINE
  8
0
 62
0
 10
45.0000006705523
 20
-100.000001490116
 30
0.0
 11
40.0000005960464
 21
-100.000001490116
 31
0.0
  0
LINE
  8
0
 62
0
 10
55.0
 20
115.0
 30
0.0
 11
55.0
 21
-115.0
 31
0.0
  0
LINE
  8
0
 62
0
 10
30.000000000000117
 20
110.0
 30
0.0
 11
30.000000000000046
 21
-110.0
 31
0.0
  0
LINE
  8
0
 62
0
 10
10.0
 20
110.0
 30
0.0
 11
30.0000000000001
 21
110.00000000000001
 31
0.0
  0
LINE
  8
0
 62
0
 10
10.0
 20
-110.0
 30
0.0
 11
10.0
 21
110.0
 31
0.0
  0
LINE
  8
0
 62
0
 10
30.0
 20
-110.0
 30
0.0
 11
10.0
 21
-110.0
 31
0.0
  0
LINE
  8
0
 62
0
 10
0.0
 20
25.0
 30
0.0
 11
5.0
 21
25.0
 31
0.0
  0
LINE
  8
0
 62
0
 10
0.0
 20
40.0
 30
0.0
 11
0.0
 21
25.0
 31
0.0
  0
LINE
  8
0
 62
0
 10
5.0
 20
40.0
 30
0.0
 11
0.0
 21
40.0
 31
0.0
  0
LINE
  8
0
 62
0
 10
5.0
 20
55.0
 30
0.0
 11
5.0
 21
40.0
 31
0.0
  0
LINE
  8
0
 62
0
 10
0.0
 20
55.0
 30
0.0
 11
5.0
 21
55.0
 31
0.0
  0
LINE
  8
0
 62
0
 10
0.0
 20
70.0
 30
0.0
 11
0.0
 21
55.0
 31
0.0
  0
LINE
  8
0
 62
0
 10
5.0
 20
70.0
 30
0.0
 11
0.0
 21
70.0
 31
0.0
  0
LINE
  8
0
 62
0
 10
5.0
 20
85.0
 30
0.0
 11
5.0
 21
70.0
 31
0.0
  0
LINE
  8
0
 62
0
 10
0.0
 20
85.0
 30
0.0
 11
5.0
 21
85.0
 31
0.0
  0
LINE
  8
0
 62
0
 10
0.0
 20
100.0
 30
0.0
 11
0.0
 21
85.0
 31
0.0
  0
LINE
  8
0
 62
0
 10
5.0
 20
100.0
 30
0.0
 11
0.0
 21
100.0
 31
0.0
  0
LINE
  8
0
 62
0
 10
5.0
 20
115.0
 30
0.0
 11
5.0
 21
100.0
 31
0.0
  0
LINE
  8
0
 62
0
 10
15.0
 20
115.0
 30
0.0
 11
5.0
 21
114.99999999999999
 31
0.0
  0
LINE
  8
0
 62
0
 10
15.0000002235174
 20
120.0
 30
0.0
 11
14.999999999999982
 21
115.0
 31
0.0
  0
LINE
  8
0
 62
0
 10
30.0000004470348
 20
120.0
 30
0.0
 11
15.0000002235174
 21
120.0
 31
0.0
  0
LINE
  8
0
 62
0
 10
30.0000004470348
 20
115.0
 30
0.0
 11
30.000000447034804
 21
120.0
 31
0.0
  0
LINE
  8
0
 62
0
 10
30.0000004470348
 20
115.0
 30
0.0
 11
55.0
 21
115.0
 31
0.0
  0
LINE
  8
0
 62
0
 10
30.0000004470347
 20
-115.0
 30
0.0
 11
55.0
 21
-115.0
 31
0.0
  0
LINE
  8
0
 62
0
 10
30.0000004470347
 20
-120.0
 30
0.0
 11
30.0000004470347
 21
-115.0
 31
0.0
  0
LINE
  8
0
 62
0
 10
14.9999999999999
 20
-120.0
 30
0.0
 11
30.0000004470347
 21
-120.0
 31
0.0
  0
LINE
  8
0
 62
0
 10
14.9999999999999
 20
-115.0
 30
0.0
 11
14.9999999999999
 21
-120.0
 31
0.0
  0
LINE
  8
0
 62
0
 10
0.0
 20
-115.0
 30
0.0
 11
14.9999999999999
 21
-115.0
 31
0.0
  0
LINE
  8
0
 62
0
 10
0.0
 20
-110.0
 30
0.0
 11
0.0
 21
-115.0
 31
0.0
  0
LINE
  8
0
 62
0
 10
5.0
 20
-110.0
 30
0.0
 11
0.0
 21
-110.0
 31
0.0
  0
LINE
  8
0
 62
0
 10
5.0
 20
-95.0
 30
0.0
 11
5.0
 21
-110.0
 31
0.0
  0
LINE
  8
0
 62
0
 10
0.0
 20
-95.0
 30
0.0
 11
5.0
 21
-95.0
 31
0.0
  0
LINE
  8
0
 62
0
 10
0.0
 20
-80.0
 30
0.0
 11
0.0
 21
-95.0
 31
0.0
  0
LINE
  8
0
 62
0
 10
5.0
 20
-80.0
 30
0.0
 11
0.0
 21
-80.0
 31
0.0
  0
LINE
  8
0
 62
0
 10
5.0
 20
-65.0
 30
0.0
 11
5.0
 21
-80.0
 31
0.0
  0
LINE
  8
0
 62
0
 10
0.0
 20
-65.0
 30
0.0
 11
5.0
 21
-65.0
 31
0.0
  0
LINE
  8
0
 62
0
 10
0.0
 20
-50.0
 30
0.0
 11
0.0
 21
-65.0
 31
0.0
  0
LINE
  8
0
 62
0
 10
5.0
 20
-50.0
 30
0.0
 11
0.0
 21
-50.0
 31
0.0
  0
LINE
  8
0
 62
0
 10
5.0
 20
-35.0
 30
0.0
 11
5.0
 21
-50.0
 31
0.0
  0
LINE
  8
0
 62
0
 10
0.0
 20
-35.0
 30
0.0
 11
5.0
 21
-35.0
 31
0.0
  0
LINE
  8
0
 62
0
 10
0.0
 20
-20.0
 30
0.0
 11
0.0
 21
-35.0
 31
0.0
  0
LINE
  8
0
 62
0
 10
5.0
 20
-20.0
 30
0.0
 11
0.0
 21
-20.0
 31
0.0
  0
LINE
  8
0
 62
0
 10
5.0
 20
-5.00000000000002
 30
0.0
 11
5.0
 21
-20.0
 31
0.0
  0
LINE
  8
0
 62
0
 10
0.0
 20
-5.00000000000002
 30
0.0
 11
5.0
 21
-5.00000000000002
 31
0.0
  0
LINE
  8
0
 62
0
 10
0.0
 20
9.99999999999998
 30
0.0
 11
0.0
 21
-5.0000000000000195
 31
0.0
  0
LINE
  8
0
 62
0
 10
5.0
 20
9.99999999999998
 30
0.0
 11
0.0
 21
9.99999999999998
 31
0.0
  0
LINE
  8
0
 62
0
 10
5.0
 20
25.0
 30
0.0
 11
5.0
 21
9.99999999999998
 31
0.0
  0
ENDBLK
  0
ENDSEC
  0
SECTION
  2
ENTITIES
  0
INSERT
  2
FACEFEAT
  8
0
 62
0
 10
0.0
 20
0.0
 30
0.0
  0
ENDSEC
  0
EOF
