  0
SECTION
  2
HEADER
  9
$ACADVER
  1
AC1009
  9
$INSBASE
 10
0.0
 20
0.0
 30
0.0
  9
$EXTMIN
 10
0.0
 20
0.0
 30
0.0
  9
$EXTMAX
 10
0.0
 20
0.0
 30
0.0
  0
ENDSEC
  0
SECTION
  2
TABLES
  0
TABLE
  2
VPORT
 70
0
  0
ENDTAB
  0
TABLE
  2
LTYPE
 70
1
  0
LTYPE
  2
CONTINUOUS
 70
0
  3
Solid line
 72
65
 73
0
 40
0.0
  0
ENDTAB
  0
TABLE
  2
LAYER
 70
1
  0
LAYER
  2
0
 70
64
 62
7
  6
continuous
  0
ENDTAB
  0
TABLE
  2
STYLE
 70
1
  0
STYLE
  2
STANDARD
 70
0
 40
0
 41
1.0
 50
0.0
 71
0
 42
1
 3
ARIAL.TTF
 4

  0
ENDTAB
  0
TABLE
  2
VIEW
 70
0
  0
ENDTAB
  0
ENDSEC
  0
SECTION
  2
BLOCKS
  0
BLOCK
  8
0
  2
FACEFEAT
 70
0
 10
0.0
 20
0.0
 30
0.0
  3
FACEFEAT
  0
LINE
  8
0
 62
0
 10
45.0000006705523
 20
-170.0
 30
0.0
 11
40.0
 21
-170.0
 31
0.0
  0
LINE
  8
0
 62
0
 10
40.0
 20
-170.0
 30
0.0
 11
40.0
 21
-150.0
 31
0.0
  0
LINE
  8
0
 62
0
 10
40.0
 20
-150.0
 30
0.0
 11
45.0000006705523
 21
-150.0
 31
0.0
  0
LINE
  8
0
 62
0
 10
45.0000006705523
 20
-150.0
 30
0.0
 11
45.0000006705523
 21
-170.0
 31
0.0
  0
LINE
  8
0
 62
0
 10
40.0000005960464
 20
170.000002533197
 30
0.0
 11
45.0000006705523
 21
170.000002533197
 31
0.0
  0
LINE
  8
0
 62
0
 10
45.0000006705523
 20
170.000002533197
 30
0.0
 11
45.0000006705523
 21
150.000002235174
 31
0.0
  0
LINE
  8
0
 62
0
 10
45.0000006705523
 20
150.000002235174
 30
0.0
 11
40.0000005960464
 21
150.000002235174
 31
0.0
  0
LINE
  8
0
 62
0
 10
40.0000005960464
 20
150.000002235174
 30
0.0
 11
40.0000005960464
 21
170.000002533197
 31
0.0
  0
LINE
  8
0
 62
0
 10
55.0000008195639
 20
185.0
 30
0.0
 11
44.9999999999998
 21
185.00000275671457
 31
0.0
  0
LINE
  8
0
 62
0
 10
55.0000008195639
 20
-185.000002756715
 30
0.0
 11
55.0000008195639
 21
185.0
 31
0.0
  0
LINE
  8
0
 62
0
 10
15.000000223517418
 20
180.000002682209
 30
0.0
 11
15.0
 21
185.000002756715
 31
0.0
  0
LINE
  8
0
 62
0
 10
30.0000004470348
 20
180.000002682209
 30
0.0
 11
15.0000002235174
 21
180.000002682209
 31
0.0
  0
LINE
  8
0
 62
0
 10
30.0000004470348
 20
185.000002756715
 30
0.0
 11
30.0000004470348
 21
180.000002682209
 31
0.0
  0
LINE
  8
0
 62
0
 10
44.9999999999998
 20
185.000002756715
 30
0.0
 11
30.0000004470348
 21
185.000002756715
 31
0.0
  0
LINE
  8
0
 62
0
 10
30.0000004470348
 20
-185.000002756715
 30
0.0
 11
55.0000008195639
 21
-185.000002756715
 31
0.0
  0
LINE
  8
0
 62
0
 10
30.0000004470348
 20
-180.000002682209
 30
0.0
 11
30.0000004470348
 21
-185.000002756715
 31
0.0
  0
LINE
  8
0
 62
0
 10
15.0000002235174
 20
-180.000002682209
 30
0.0
 11
30.0000004470348
 21
-180.000002682209
 31
0.0
  0
LINE
  8
0
 62
0
 10
14.999999999999982
 20
-185.000002756715
 30
0.0
 11
15.0000002235174
 21
-180.000002682209
 31
0.0
  0
LINE
  8
0
 62
0
 10
0.0
 20
-185.000002756715
 30
0.0
 11
15.0
 21
-185.000002756715
 31
0.0
  0
LINE
  8
0
 62
0
 10
0.0
 20
-180.0
 30
0.0
 11
0.0
 21
-185.000002756715
 31
0.0
  0
LINE
  8
0
 62
0
 10
5.0
 20
-180.0
 30
0.0
 11
0.0
 21
-179.99999999999997
 31
0.0
  0
LINE
  8
0
 62
0
 10
5.0
 20
-165.0
 30
0.0
 11
5.0
 21
-180.0
 31
0.0
  0
LINE
  8
0
 62
0
 10
0.0
 20
-165.0
 30
0.0
 11
5.0
 21
-165.0
 31
0.0
  0
LINE
  8
0
 62
0
 10
0.0
 20
-150.0
 30
0.0
 11
0.0
 21
-165.0
 31
0.0
  0
LINE
  8
0
 62
0
 10
5.0
 20
-150.0
 30
0.0
 11
0.0
 21
-150.00000000000003
 31
0.0
  0
LINE
  8
0
 62
0
 10
5.0
 20
-135.0
 30
0.0
 11
5.0
 21
-150.0
 31
0.0
  0
LINE
  8
0
 62
0
 10
0.0
 20
-135.0
 30
0.0
 11
5.0
 21
-134.99999999999997
 31
0.0
  0
LINE
  8
0
 62
0
 10
0.0
 20
-120.0
 30
0.0
 11
0.0
 21
-135.0
 31
0.0
  0
LINE
  8
0
 62
0
 10
5.0
 20
-120.0
 30
0.0
 11
0.0
 21
-120.00000000000001
 31
0.0
  0
LINE
  8
0
 62
0
 10
5.0
 20
-105.0
 30
0.0
 11
5.0
 21
-120.0
 31
0.0
  0
LINE
  8
0
 62
0
 10
0.0
 20
-105.0
 30
0.0
 11
5.0
 21
-105.0
 31
0.0
  0
LINE
  8
0
 62
0
 10
0.0
 20
-90.0
 30
0.0
 11
0.0
 21
-105.0
 31
0.0
  0
LINE
  8
0
 62
0
 10
5.0
 20
-90.0
 30
0.0
 11
0.0
 21
-90.0
 31
0.0
  0
LINE
  8
0
 62
0
 10
5.0
 20
-75.0
 30
0.0
 11
5.0
 21
-90.0
 31
0.0
  0
LINE
  8
0
 62
0
 10
0.0
 20
-75.0
 30
0.0
 11
5.0
 21
-75.0
 31
0.0
  0
LINE
  8
0
 62
0
 10
0.0
 20
-60.0
 30
0.0
 11
0.0
 21
-75.0
 31
0.0
  0
LINE
  8
0
 62
0
 10
5.0
 20
-60.0
 30
0.0
 11
0.0
 21
-60.0
 31
0.0
  0
LINE
  8
0
 62
0
 10
5.0
 20
-45.0
 30
0.0
 11
5.0
 21
-60.0
 31
0.0
  0
LINE
  8
0
 62
0
 10
0.0
 20
-45.0
 30
0.0
 11
5.0
 21
-45.0
 31
0.0
  0
LINE
  8
0
 62
0
 10
0.0
 20
-30.0
 30
0.0
 11
0.0
 21
-45.0
 31
0.0
  0
LINE
  8
0
 62
0
 10
5.0
 20
-30.0
 30
0.0
 11
0.0
 21
-30.0
 31
0.0
  0
LINE
  8
0
 62
0
 10
5.0
 20
-15.0
 30
0.0
 11
5.0
 21
-30.0
 31
0.0
  0
LINE
  8
0
 62
0
 10
0.0
 20
-15.0
 30
0.0
 11
5.0
 21
-15.0
 31
0.0
  0
LINE
  8
0
 62
0
 10
0.0
 20
0.0
 30
0.0
 11
0.0
 21
-15.0
 31
0.0
  0
LINE
  8
0
 62
0
 10
5.0
 20
0.0
 30
0.0
 11
0.0
 21
0.0
 31
0.0
  0
LINE
  8
0
 62
0
 10
5.0
 20
15.0
 30
0.0
 11
5.0
 21
0.0
 31
0.0
  0
LINE
  8
0
 62
0
 10
0.0
 20
15.0
 30
0.0
 11
5.0
 21
15.0
 31
0.0
  0
LINE
  8
0
 62
0
 10
0.0
 20
30.0
 30
0.0
 11
0.0
 21
15.0
 31
0.0
  0
LINE
  8
0
 62
0
 10
5.0
 20
30.0
 30
0.0
 11
0.0
 21
30.0
 31
0.0
  0
LINE
  8
0
 62
0
 10
5.0
 20
45.0
 30
0.0
 11
5.0
 21
30.0
 31
0.0
  0
LINE
  8
0
 62
0
 10
0.0
 20
45.0
 30
0.0
 11
5.0
 21
45.0
 31
0.0
  0
LINE
  8
0
 62
0
 10
0.0
 20
60.0
 30
0.0
 11
0.0
 21
45.0
 31
0.0
  0
LINE
  8
0
 62
0
 10
5.0
 20
60.0
 30
0.0
 11
0.0
 21
60.0
 31
0.0
  0
LINE
  8
0
 62
0
 10
5.0
 20
75.0
 30
0.0
 11
5.0
 21
60.0
 31
0.0
  0
LINE
  8
0
 62
0
 10
0.0
 20
75.0
 30
0.0
 11
5.0
 21
75.0
 31
0.0
  0
LINE
  8
0
 62
0
 10
0.0
 20
90.0
 30
0.0
 11
0.0
 21
75.0
 31
0.0
  0
LINE
  8
0
 62
0
 10
5.0
 20
90.0
 30
0.0
 11
0.0
 21
90.0
 31
0.0
  0
LINE
  8
0
 62
0
 10
5.0
 20
105.0
 30
0.0
 11
5.0
 21
90.0
 31
0.0
  0
LINE
  8
0
 62
0
 10
0.0
 20
105.0
 30
0.0
 11
5.0
 21
105.0
 31
0.0
  0
LINE
  8
0
 62
0
 10
0.0
 20
120.0
 30
0.0
 11
0.0
 21
105.0
 31
0.0
  0
LINE
  8
0
 62
0
 10
5.0
 20
120.0
 30
0.0
 11
0.0
 21
120.0
 31
0.0
  0
LINE
  8
0
 62
0
 10
5.0
 20
135.0
 30
0.0
 11
5.0
 21
120.0
 31
0.0
  0
LINE
  8
0
 62
0
 10
0.0
 20
135.0
 30
0.0
 11
5.0
 21
135.0
 31
0.0
  0
LINE
  8
0
 62
0
 10
0.0
 20
150.0
 30
0.0
 11
0.0
 21
135.0
 31
0.0
  0
LINE
  8
0
 62
0
 10
5.0
 20
150.0
 30
0.0
 11
0.0
 21
150.0
 31
0.0
  0
LINE
  8
0
 62
0
 10
5.0
 20
165.0
 30
0.0
 11
5.0
 21
150.0
 31
0.0
  0
LINE
  8
0
 62
0
 10
0.0
 20
165.0
 30
0.0
 11
5.0
 21
165.0
 31
0.0
  0
LINE
  8
0
 62
0
 10
0.0
 20
185.000002756715
 30
0.0
 11
0.0
 21
165.0
 31
0.0
  0
LINE
  8
0
 62
0
 10
15.0
 20
185.000002756715
 30
0.0
 11
0.0
 21
185.000002756715
 31
0.0
  0
ENDBLK
  0
ENDSEC
  0
SECTION
  2
ENTITIES
  0
INSERT
  2
FACEFEAT
  8
0
 62
0
 10
0.0
 20
0.0
 30
0.0
  0
ENDSEC
  0
EOF
