  0
SECTION
  2
HEADER
  9
$ACADVER
  1
AC1009
  9
$INSBASE
 10
0.0
 20
0.0
 30
0.0
  9
$EXTMIN
 10
0.0
 20
0.0
 30
0.0
  9
$EXTMAX
 10
0.0
 20
0.0
 30
0.0
  0
ENDSEC
  0
SECTION
  2
TABLES
  0
TABLE
  2
VPORT
 70
0
  0
ENDTAB
  0
TABLE
  2
LTYPE
 70
1
  0
LTYPE
  2
CONTINUOUS
 70
0
  3
Solid line
 72
65
 73
0
 40
0.0
  0
ENDTAB
  0
TABLE
  2
LAYER
 70
1
  0
LAYER
  2
0
 70
64
 62
7
  6
continuous
  0
ENDTAB
  0
TABLE
  2
STYLE
 70
1
  0
STYLE
  2
STANDARD
 70
0
 40
0
 41
1.0
 50
0.0
 71
0
 42
1
 3
ARIAL.TTF
 4

  0
ENDTAB
  0
TABLE
  2
VIEW
 70
0
  0
ENDTAB
  0
ENDSEC
  0
SECTION
  2
BLOCKS
  0
BLOCK
  8
0
  2
FACEFEAT
 70
0
 10
0.0
 20
0.0
 30
0.0
  3
FACEFEAT
  0
LINE
  8
0
 62
0
 10
33.0000000000013
 20
-91.9999998658895
 30
0.0
 11
13.0000000000013
 21
-91.9999998658895
 31
0.0
  0
LINE
  8
0
 62
0
 10
13.0000000000013
 20
-91.9999998658895
 30
0.0
 11
13.0000000000013
 21
-67.9999998658895
 31
0.0
  0
LINE
  8
0
 62
0
 10
13.0000000000013
 20
-67.9999998658895
 30
0.0
 11
33.0000000000013
 21
-67.9999998658895
 31
0.0
  0
LINE
  8
0
 62
0
 10
33.0000000000013
 20
-67.9999998658895
 30
0.0
 11
33.0000000000013
 21
-91.9999998658895
 31
0.0
  0
LINE
  8
0
 62
0
 10
50.0000000000013
 20
50.0
 30
0.0
 11
55.0000000000013
 21
50.0
 31
0.0
  0
LINE
  8
0
 62
0
 10
55.0000000000013
 20
-50.0
 30
0.0
 11
50.0000000000013
 21
-50.0
 31
0.0
  0
LINE
  8
0
 62
0
 10
50.0000000000013
 20
-50.00000000000001
 30
0.0
 11
50.0000000000013
 21
50.0
 31
0.0
  0
LINE
  8
0
 62
0
 10
55.0
 20
50.0
 30
0.0
 11
55.0
 21
120.0
 31
0.0
  0
LINE
  8
0
 62
0
 10
55.0
 20
-115.0
 30
0.0
 11
55.0
 21
-50.0
 31
0.0
  0
LINE
  8
0
 62
0
 10
55.0
 20
120.0
 30
0.0
 11
45.0000006705523
 21
120.00000178813933
 31
0.0
  0
LINE
  8
0
 62
0
 10
45.0000006705523
 20
120.000001788139
 30
0.0
 11
45.0000006705523
 21
115.000001713634
 31
0.0
  0
LINE
  8
0
 62
0
 10
45.0000006705523
 20
115.000001713634
 30
0.0
 11
15.0000002235174
 21
115.000001713634
 31
0.0
  0
LINE
  8
0
 62
0
 10
15.0000002235174
 20
115.000001713634
 30
0.0
 11
15.0000002235174
 21
120.0
 31
0.0
  0
LINE
  8
0
 62
0
 10
0.0
 20
120.0
 30
0.0
 11
15.0000002235174
 21
120.0
 31
0.0
  0
LINE
  8
0
 62
0
 10
0.0
 20
115.0
 30
0.0
 11
0.0
 21
120.0
 31
0.0
  0
LINE
  8
0
 62
0
 10
5.0
 20
115.0
 30
0.0
 11
0.0
 21
115.0
 31
0.0
  0
LINE
  8
0
 62
0
 10
5.0
 20
115.0
 30
0.0
 11
5.0
 21
90.0
 31
0.0
  0
LINE
  8
0
 62
0
 10
5.0
 20
90.0
 30
0.0
 11
0.0
 21
90.0
 31
0.0
  0
LINE
  8
0
 62
0
 10
0.0
 20
40.0
 30
0.0
 11
0.0
 21
90.0
 31
0.0
  0
LINE
  8
0
 62
0
 10
0.0
 20
40.0
 30
0.0
 11
5.0
 21
40.0
 31
0.0
  0
LINE
  8
0
 62
0
 10
5.0
 20
40.0
 30
0.0
 11
5.0
 21
-40.0
 31
0.0
  0
LINE
  8
0
 62
0
 10
5.0
 20
-40.0
 30
0.0
 11
0.0
 21
-40.0
 31
0.0
  0
LINE
  8
0
 62
0
 10
0.0
 20
-90.0
 30
0.0
 11
0.0
 21
-40.0
 31
0.0
  0
LINE
  8
0
 62
0
 10
0.0
 20
-90.0
 30
0.0
 11
5.0
 21
-90.0
 31
0.0
  0
LINE
  8
0
 62
0
 10
5.0
 20
-90.0
 30
0.0
 11
5.0
 21
-115.0
 31
0.0
  0
LINE
  8
0
 62
0
 10
5.0
 20
-115.0
 30
0.0
 11
15.0000002235174
 21
-115.0
 31
0.0
  0
LINE
  8
0
 62
0
 10
15.0000002235174
 20
-120.0
 30
0.0
 11
15.0000002235174
 21
-114.999999925494
 31
0.0
  0
LINE
  8
0
 62
0
 10
45.0000006705523
 20
-120.0
 30
0.0
 11
15.0000002235174
 21
-120.0
 31
0.0
  0
LINE
  8
0
 62
0
 10
45.0000006705523
 20
-115.0
 30
0.0
 11
45.0000006705523
 21
-120.0
 31
0.0
  0
LINE
  8
0
 62
0
 10
45.0000006705523
 20
-115.0
 30
0.0
 11
55.0
 21
-115.0
 31
0.0
  0
ENDBLK
  0
ENDSEC
  0
SECTION
  2
ENTITIES
  0
INSERT
  2
FACEFEAT
  8
0
 62
0
 10
0.0
 20
0.0
 30
0.0
  0
ENDSEC
  0
EOF
