  0
SECTION
  2
HEADER
  9
$ACADVER
  1
AC1009
  9
$INSBASE
 10
0.0
 20
0.0
 30
0.0
  9
$EXTMIN
 10
0.0
 20
0.0
 30
0.0
  9
$EXTMAX
 10
0.0
 20
0.0
 30
0.0
  0
ENDSEC
  0
SECTION
  2
TABLES
  0
TABLE
  2
VPORT
 70
0
  0
ENDTAB
  0
TABLE
  2
LTYPE
 70
1
  0
LTYPE
  2
CONTINUOUS
 70
0
  3
Solid line
 72
65
 73
0
 40
0.0
  0
ENDTAB
  0
TABLE
  2
LAYER
 70
1
  0
LAYER
  2
0
 70
64
 62
7
  6
continuous
  0
ENDTAB
  0
TABLE
  2
STYLE
 70
1
  0
STYLE
  2
STANDARD
 70
0
 40
0
 41
1.0
 50
0.0
 71
0
 42
1
 3
ARIAL.TTF
 4

  0
ENDTAB
  0
TABLE
  2
VIEW
 70
0
  0
ENDTAB
  0
ENDSEC
  0
SECTION
  2
BLOCKS
  0
BLOCK
  8
0
  2
FACEFEAT
 70
0
 10
0.0
 20
0.0
 30
0.0
  3
FACEFEAT
  0
CIRCLE
  8
0
 62
0
 10
-3.99999999999995
 20
-40.0
 30
0.0
 40
1.7
  0
CIRCLE
  8
0
 62
0
 10
47.0
 20
5.00000000000002
 30
0.0
 40
1.7
  0
LINE
  8
0
 62
0
 10
-135.0
 20
109.0
 30
0.0
 11
-135.0
 21
112.0
 31
0.0
  0
LINE
  8
0
 62
0
 10
-120.0
 20
109.0
 30
0.0
 11
-135.0
 21
109.0
 31
0.0
  0
LINE
  8
0
 62
0
 10
-120.0
 20
112.0
 30
0.0
 11
-120.0
 21
109.0
 31
0.0
  0
LINE
  8
0
 62
0
 10
-135.0
 20
112.0
 30
0.0
 11
-120.0
 21
112.0
 31
0.0
  0
CIRCLE
  8
0
 62
0
 10
-60.5505726996655
 20
57.5908534887192
 30
0.0
 40
1.65
  0
CIRCLE
  8
0
 62
0
 10
-175.5
 20
-80.0
 30
0.0
 40
1.65000000000003
  0
CIRCLE
  8
0
 62
0
 10
-41.0000005673084
 20
71.0
 30
0.0
 40
1.65
  0
LINE
  8
0
 62
0
 10
-170.0
 20
112.0
 30
0.0
 11
-155.0
 21
112.0
 31
0.0
  0
LINE
  8
0
 62
0
 10
-170.0
 20
109.0
 30
0.0
 11
-170.0
 21
112.0
 31
0.0
  0
LINE
  8
0
 62
0
 10
-155.0
 20
109.0
 30
0.0
 11
-170.0
 21
109.0
 31
0.0
  0
LINE
  8
0
 62
0
 10
-155.0
 20
112.0
 30
0.0
 11
-155.0
 21
109.0
 31
0.0
  0
CIRCLE
  8
0
 62
0
 10
161.0
 20
104.0
 30
0.0
 40
1.65000000000001
  0
CIRCLE
  8
0
 62
0
 10
-41.0
 20
58.0
 30
0.0
 40
1.7
  0
CIRCLE
  8
0
 62
0
 10
-3.99999999999995
 20
-102.0
 30
0.0
 40
1.7
  0
CIRCLE
  8
0
 62
0
 10
38.9999994326916
 20
101.0
 30
0.0
 40
1.65
  0
LINE
  8
0
 62
0
 10
-170.0
 20
59.0
 30
0.0
 11
-170.0
 21
62.0
 31
0.0
  0
LINE
  8
0
 62
0
 10
-155.0
 20
59.0
 30
0.0
 11
-170.0
 21
59.0
 31
0.0
  0
LINE
  8
0
 62
0
 10
-155.0
 20
62.0
 30
0.0
 11
-155.0
 21
59.0
 31
0.0
  0
LINE
  8
0
 62
0
 10
-170.0
 20
62.0
 30
0.0
 11
-155.0
 21
62.0
 31
0.0
  0
CIRCLE
  8
0
 62
0
 10
-85.5505726996655
 20
17.5908534887192
 30
0.0
 40
1.64999999999999
  0
CIRCLE
  8
0
 62
0
 10
-175.5
 20
-35.0
 30
0.0
 40
1.64999999999999
  0
LINE
  8
0
 62
0
 10
-135.0
 20
59.0
 30
0.0
 11
-135.0
 21
62.0
 31
0.0
  0
LINE
  8
0
 62
0
 10
-120.0
 20
59.0
 30
0.0
 11
-135.0
 21
59.0
 31
0.0
  0
LINE
  8
0
 62
0
 10
-120.0
 20
62.0
 30
0.0
 11
-120.0
 21
59.0
 31
0.0
  0
LINE
  8
0
 62
0
 10
-135.0
 20
62.0
 30
0.0
 11
-120.0
 21
62.0
 31
0.0
  0
CIRCLE
  8
0
 62
0
 10
30.0
 20
76.0
 30
0.0
 40
1.7
  0
LINE
  8
0
 62
0
 10
157.5
 20
103.992411490537
 30
0.0
 11
147.5
 21
103.992411490537
 31
0.0
  0
LINE
  8
0
 62
0
 10
157.5
 20
113.992411490537
 30
0.0
 11
157.5
 21
103.992411490537
 31
0.0
  0
LINE
  8
0
 62
0
 10
147.5
 20
113.992411490537
 30
0.0
 11
157.5
 21
113.992411490537
 31
0.0
  0
LINE
  8
0
 62
0
 10
147.5
 20
103.992411490537
 30
0.0
 11
147.5
 21
113.992411490537
 31
0.0
  0
CIRCLE
  8
0
 62
0
 10
-46.0
 20
18.0
 30
0.0
 40
1.7
  0
CIRCLE
  8
0
 62
0
 10
164.0
 20
-25.0
 30
0.0
 40
1.70000000000002
  0
CIRCLE
  8
0
 62
0
 10
162.0
 20
-50.0
 30
0.0
 40
1.70000000000002
  0
CIRCLE
  8
0
 62
0
 10
91.0000000000001
 20
-105.0
 30
0.0
 40
1.7
  0
CIRCLE
  8
0
 62
0
 10
165.0
 20
-105.0
 30
0.0
 40
1.70000000000002
  0
LINE
  8
0
 62
0
 10
-185.0
 20
40.0
 30
0.0
 11
-185.0
 21
-40.0
 31
0.0
  0
LINE
  8
0
 62
0
 10
-180.0
 20
40.0
 30
0.0
 11
-185.0
 21
40.0
 31
0.0
  0
LINE
  8
0
 62
0
 10
-180.0
 20
90.0
 30
0.0
 11
-180.0
 21
40.0
 31
0.0
  0
LINE
  8
0
 62
0
 10
-185.0
 20
90.0
 30
0.0
 11
-180.0
 21
90.0
 31
0.0
  0
LINE
  8
0
 62
0
 10
-185.0
 20
115.0
 30
0.0
 11
-185.0
 21
90.0
 31
0.0
  0
LINE
  8
0
 62
0
 10
-180.0
 20
115.0
 30
0.0
 11
-185.0
 21
115.0
 31
0.0
  0
LINE
  8
0
 62
0
 10
-180.0
 20
120.0
 30
0.0
 11
-180.0
 21
115.0
 31
0.0
  0
LINE
  8
0
 62
0
 10
-150.0
 20
120.0
 30
0.0
 11
-180.0
 21
120.0
 31
0.0
  0
LINE
  8
0
 62
0
 10
-150.0
 20
115.0
 30
0.0
 11
-150.0
 21
120.0
 31
0.0
  0
LINE
  8
0
 62
0
 10
-50.0
 20
115.0
 30
0.0
 11
-150.0
 21
115.0
 31
0.0
  0
LINE
  8
0
 62
0
 10
-50.0
 20
120.0
 30
0.0
 11
-50.0
 21
115.0
 31
0.0
  0
LINE
  8
0
 62
0
 10
50.0
 20
120.0
 30
0.0
 11
-50.0
 21
120.0
 31
0.0
  0
LINE
  8
0
 62
0
 10
50.0
 20
115.0
 30
0.0
 11
50.0
 21
120.0
 31
0.0
  0
LINE
  8
0
 62
0
 10
150.0
 20
115.0
 30
0.0
 11
50.0
 21
115.0
 31
0.0
  0
LINE
  8
0
 62
0
 10
150.0
 20
120.0
 30
0.0
 11
150.0
 21
115.0
 31
0.0
  0
LINE
  8
0
 62
0
 10
180.0
 20
120.0
 30
0.0
 11
150.0
 21
120.0
 31
0.0
  0
LINE
  8
0
 62
0
 10
180.0
 20
115.0
 30
0.0
 11
180.0
 21
120.0
 31
0.0
  0
LINE
  8
0
 62
0
 10
185.0
 20
115.0
 30
0.0
 11
180.0
 21
115.0
 31
0.0
  0
LINE
  8
0
 62
0
 10
185.0
 20
90.0
 30
0.0
 11
185.0
 21
115.0
 31
0.0
  0
LINE
  8
0
 62
0
 10
180.0
 20
90.0
 30
0.0
 11
185.0
 21
90.0
 31
0.0
  0
LINE
  8
0
 62
0
 10
180.0
 20
40.0
 30
0.0
 11
180.0
 21
90.0
 31
0.0
  0
LINE
  8
0
 62
0
 10
185.0
 20
40.0
 30
0.0
 11
180.0
 21
40.0
 31
0.0
  0
LINE
  8
0
 62
0
 10
185.0
 20
-40.0
 30
0.0
 11
185.0
 21
40.0
 31
0.0
  0
LINE
  8
0
 62
0
 10
180.0
 20
-40.0
 30
0.0
 11
185.0
 21
-40.0
 31
0.0
  0
LINE
  8
0
 62
0
 10
180.0
 20
-90.0
 30
0.0
 11
179.99999999999997
 21
-40.0
 31
0.0
  0
LINE
  8
0
 62
0
 10
185.0
 20
-90.0
 30
0.0
 11
180.0
 21
-90.0
 31
0.0
  0
LINE
  8
0
 62
0
 10
185.0
 20
-115.0
 30
0.0
 11
185.0
 21
-90.0
 31
0.0
  0
LINE
  8
0
 62
0
 10
180.0
 20
-115.0
 30
0.0
 11
185.0
 21
-115.0
 31
0.0
  0
LINE
  8
0
 62
0
 10
180.0
 20
-120.0
 30
0.0
 11
180.0
 21
-115.0
 31
0.0
  0
LINE
  8
0
 62
0
 10
150.0
 20
-120.0
 30
0.0
 11
180.0
 21
-120.0
 31
0.0
  0
LINE
  8
0
 62
0
 10
150.0
 20
-115.0
 30
0.0
 11
150.0
 21
-120.0
 31
0.0
  0
LINE
  8
0
 62
0
 10
50.0
 20
-115.0
 30
0.0
 11
150.0
 21
-115.0
 31
0.0
  0
LINE
  8
0
 62
0
 10
50.0
 20
-120.0
 30
0.0
 11
50.0
 21
-115.0
 31
0.0
  0
LINE
  8
0
 62
0
 10
-50.0
 20
-120.0
 30
0.0
 11
50.0
 21
-120.0
 31
0.0
  0
LINE
  8
0
 62
0
 10
-50.0
 20
-115.0
 30
0.0
 11
-50.0
 21
-120.0
 31
0.0
  0
LINE
  8
0
 62
0
 10
-150.0
 20
-115.0
 30
0.0
 11
-50.0
 21
-115.0
 31
0.0
  0
LINE
  8
0
 62
0
 10
-150.0
 20
-120.0
 30
0.0
 11
-150.0
 21
-115.0
 31
0.0
  0
LINE
  8
0
 62
0
 10
-180.0
 20
-120.0
 30
0.0
 11
-150.0
 21
-120.0
 31
0.0
  0
LINE
  8
0
 62
0
 10
-180.0
 20
-115.0
 30
0.0
 11
-180.0
 21
-120.0
 31
0.0
  0
LINE
  8
0
 62
0
 10
-185.0
 20
-115.0
 30
0.0
 11
-180.0
 21
-115.0
 31
0.0
  0
LINE
  8
0
 62
0
 10
-185.0
 20
-90.0
 30
0.0
 11
-185.0
 21
-115.0
 31
0.0
  0
LINE
  8
0
 62
0
 10
-180.0
 20
-90.0
 30
0.0
 11
-185.0
 21
-90.0
 31
0.0
  0
LINE
  8
0
 62
0
 10
-179.99999999999997
 20
-40.0
 30
0.0
 11
-180.0
 21
-90.0
 31
0.0
  0
LINE
  8
0
 62
0
 10
-185.0
 20
-40.0
 30
0.0
 11
-180.0
 21
-40.0
 31
0.0
  0
LINE
  8
0
 62
0
 10
-135.0
 20
109.0
 30
0.0
 11
-135.0
 21
112.0
 31
0.0
  0
LINE
  8
0
 62
0
 10
-120.0
 20
109.0
 30
0.0
 11
-135.0
 21
109.0
 31
0.0
  0
LINE
  8
0
 62
0
 10
-120.0
 20
112.0
 30
0.0
 11
-120.0
 21
109.0
 31
0.0
  0
LINE
  8
0
 62
0
 10
-135.0
 20
112.0
 30
0.0
 11
-120.0
 21
112.0
 31
0.0
  0
CIRCLE
  8
0
 62
0
 10
-60.5505726996655
 20
57.5908534887192
 30
0.0
 40
1.65
  0
CIRCLE
  8
0
 62
0
 10
-175.5
 20
-80.0
 30
0.0
 40
1.65000000000003
  0
CIRCLE
  8
0
 62
0
 10
-41.0000005673084
 20
71.0
 30
0.0
 40
1.65
  0
LINE
  8
0
 62
0
 10
-170.0
 20
112.0
 30
0.0
 11
-155.0
 21
112.0
 31
0.0
  0
LINE
  8
0
 62
0
 10
-170.0
 20
109.0
 30
0.0
 11
-170.0
 21
112.0
 31
0.0
  0
LINE
  8
0
 62
0
 10
-155.0
 20
109.0
 30
0.0
 11
-170.0
 21
109.0
 31
0.0
  0
LINE
  8
0
 62
0
 10
-155.0
 20
112.0
 30
0.0
 11
-155.0
 21
109.0
 31
0.0
  0
CIRCLE
  8
0
 62
0
 10
161.0
 20
104.0
 30
0.0
 40
1.65000000000001
  0
CIRCLE
  8
0
 62
0
 10
38.9999994326916
 20
101.0
 30
0.0
 40
1.65
  0
LINE
  8
0
 62
0
 10
-170.0
 20
59.0
 30
0.0
 11
-170.0
 21
62.0
 31
0.0
  0
LINE
  8
0
 62
0
 10
-155.0
 20
59.0
 30
0.0
 11
-170.0
 21
59.0
 31
0.0
  0
LINE
  8
0
 62
0
 10
-155.0
 20
62.0
 30
0.0
 11
-155.0
 21
59.0
 31
0.0
  0
LINE
  8
0
 62
0
 10
-170.0
 20
62.0
 30
0.0
 11
-155.0
 21
62.0
 31
0.0
  0
CIRCLE
  8
0
 62
0
 10
-85.5505726996655
 20
17.5908534887192
 30
0.0
 40
1.64999999999999
  0
CIRCLE
  8
0
 62
0
 10
-175.5
 20
-35.0
 30
0.0
 40
1.64999999999999
  0
LINE
  8
0
 62
0
 10
-135.0
 20
59.0
 30
0.0
 11
-135.0
 21
62.0
 31
0.0
  0
LINE
  8
0
 62
0
 10
-120.0
 20
59.0
 30
0.0
 11
-135.0
 21
59.0
 31
0.0
  0
LINE
  8
0
 62
0
 10
-120.0
 20
62.0
 30
0.0
 11
-120.0
 21
59.0
 31
0.0
  0
LINE
  8
0
 62
0
 10
-135.0
 20
62.0
 30
0.0
 11
-120.0
 21
62.0
 31
0.0
  0
LINE
  8
0
 62
0
 10
157.5
 20
103.992411490537
 30
0.0
 11
147.5
 21
103.992411490537
 31
0.0
  0
LINE
  8
0
 62
0
 10
157.5
 20
113.992411490537
 30
0.0
 11
157.5
 21
103.992411490537
 31
0.0
  0
LINE
  8
0
 62
0
 10
147.5
 20
113.992411490537
 30
0.0
 11
157.5
 21
113.992411490537
 31
0.0
  0
LINE
  8
0
 62
0
 10
147.5
 20
103.992411490537
 30
0.0
 11
147.5
 21
113.992411490537
 31
0.0
  0
CIRCLE
  8
0
 62
0
 10
30.0
 20
76.0
 30
0.0
 40
1.7
  0
CIRCLE
  8
0
 62
0
 10
-41.0
 20
58.0
 30
0.0
 40
1.7
  0
CIRCLE
  8
0
 62
0
 10
-46.0
 20
18.0
 30
0.0
 40
1.7
  0
CIRCLE
  8
0
 62
0
 10
47.0
 20
5.00000000000002
 30
0.0
 40
1.7
  0
CIRCLE
  8
0
 62
0
 10
164.0
 20
-25.0
 30
0.0
 40
1.70000000000002
  0
CIRCLE
  8
0
 62
0
 10
162.0
 20
-50.0
 30
0.0
 40
1.70000000000002
  0
CIRCLE
  8
0
 62
0
 10
-3.99999999999995
 20
-40.0
 30
0.0
 40
1.7
  0
CIRCLE
  8
0
 62
0
 10
-3.99999999999995
 20
-102.0
 30
0.0
 40
1.7
  0
CIRCLE
  8
0
 62
0
 10
91.0000000000001
 20
-105.0
 30
0.0
 40
1.7
  0
CIRCLE
  8
0
 62
0
 10
165.0
 20
-105.0
 30
0.0
 40
1.70000000000002
  0
LINE
  8
0
 62
0
 10
-185.0
 20
40.0
 30
0.0
 11
-185.0
 21
-40.0
 31
0.0
  0
LINE
  8
0
 62
0
 10
-180.0
 20
40.0
 30
0.0
 11
-185.0
 21
40.0
 31
0.0
  0
LINE
  8
0
 62
0
 10
-180.0
 20
90.0
 30
0.0
 11
-180.0
 21
40.0
 31
0.0
  0
LINE
  8
0
 62
0
 10
-185.0
 20
90.0
 30
0.0
 11
-180.0
 21
90.0
 31
0.0
  0
LINE
  8
0
 62
0
 10
-185.0
 20
115.0
 30
0.0
 11
-185.0
 21
90.0
 31
0.0
  0
LINE
  8
0
 62
0
 10
-180.0
 20
115.0
 30
0.0
 11
-185.0
 21
115.0
 31
0.0
  0
LINE
  8
0
 62
0
 10
-180.0
 20
120.0
 30
0.0
 11
-180.0
 21
115.0
 31
0.0
  0
LINE
  8
0
 62
0
 10
-150.0
 20
120.0
 30
0.0
 11
-180.0
 21
120.0
 31
0.0
  0
LINE
  8
0
 62
0
 10
-150.0
 20
115.0
 30
0.0
 11
-150.0
 21
120.0
 31
0.0
  0
LINE
  8
0
 62
0
 10
-50.0
 20
115.0
 30
0.0
 11
-150.0
 21
115.0
 31
0.0
  0
LINE
  8
0
 62
0
 10
-50.0
 20
120.0
 30
0.0
 11
-50.0
 21
115.0
 31
0.0
  0
LINE
  8
0
 62
0
 10
50.0
 20
120.0
 30
0.0
 11
-50.0
 21
120.0
 31
0.0
  0
LINE
  8
0
 62
0
 10
50.0
 20
115.0
 30
0.0
 11
50.0
 21
120.0
 31
0.0
  0
LINE
  8
0
 62
0
 10
150.0
 20
115.0
 30
0.0
 11
50.0
 21
115.0
 31
0.0
  0
LINE
  8
0
 62
0
 10
150.0
 20
120.0
 30
0.0
 11
150.0
 21
115.0
 31
0.0
  0
LINE
  8
0
 62
0
 10
180.0
 20
120.0
 30
0.0
 11
150.0
 21
120.0
 31
0.0
  0
LINE
  8
0
 62
0
 10
180.0
 20
115.0
 30
0.0
 11
180.0
 21
120.0
 31
0.0
  0
LINE
  8
0
 62
0
 10
185.0
 20
115.0
 30
0.0
 11
180.0
 21
115.0
 31
0.0
  0
LINE
  8
0
 62
0
 10
185.0
 20
90.0
 30
0.0
 11
185.0
 21
115.0
 31
0.0
  0
LINE
  8
0
 62
0
 10
180.0
 20
90.0
 30
0.0
 11
185.0
 21
90.0
 31
0.0
  0
LINE
  8
0
 62
0
 10
180.0
 20
40.0
 30
0.0
 11
180.0
 21
90.0
 31
0.0
  0
LINE
  8
0
 62
0
 10
185.0
 20
40.0
 30
0.0
 11
180.0
 21
40.0
 31
0.0
  0
LINE
  8
0
 62
0
 10
185.0
 20
-40.0
 30
0.0
 11
185.0
 21
40.0
 31
0.0
  0
LINE
  8
0
 62
0
 10
180.0
 20
-40.0
 30
0.0
 11
185.0
 21
-40.0
 31
0.0
  0
LINE
  8
0
 62
0
 10
180.0
 20
-90.0
 30
0.0
 11
179.99999999999997
 21
-40.0
 31
0.0
  0
LINE
  8
0
 62
0
 10
185.0
 20
-90.0
 30
0.0
 11
180.0
 21
-90.0
 31
0.0
  0
LINE
  8
0
 62
0
 10
185.0
 20
-115.0
 30
0.0
 11
185.0
 21
-90.0
 31
0.0
  0
LINE
  8
0
 62
0
 10
180.0
 20
-115.0
 30
0.0
 11
185.0
 21
-115.0
 31
0.0
  0
LINE
  8
0
 62
0
 10
180.0
 20
-120.0
 30
0.0
 11
180.0
 21
-115.0
 31
0.0
  0
LINE
  8
0
 62
0
 10
150.0
 20
-120.0
 30
0.0
 11
180.0
 21
-120.0
 31
0.0
  0
LINE
  8
0
 62
0
 10
150.0
 20
-115.0
 30
0.0
 11
150.0
 21
-120.0
 31
0.0
  0
LINE
  8
0
 62
0
 10
50.0
 20
-115.0
 30
0.0
 11
150.0
 21
-115.0
 31
0.0
  0
LINE
  8
0
 62
0
 10
50.0
 20
-120.0
 30
0.0
 11
50.0
 21
-115.0
 31
0.0
  0
LINE
  8
0
 62
0
 10
-50.0
 20
-120.0
 30
0.0
 11
50.0
 21
-120.0
 31
0.0
  0
LINE
  8
0
 62
0
 10
-50.0
 20
-115.0
 30
0.0
 11
-50.0
 21
-120.0
 31
0.0
  0
LINE
  8
0
 62
0
 10
-150.0
 20
-115.0
 30
0.0
 11
-50.0
 21
-115.0
 31
0.0
  0
LINE
  8
0
 62
0
 10
-150.0
 20
-120.0
 30
0.0
 11
-150.0
 21
-115.0
 31
0.0
  0
LINE
  8
0
 62
0
 10
-180.0
 20
-120.0
 30
0.0
 11
-150.0
 21
-120.0
 31
0.0
  0
LINE
  8
0
 62
0
 10
-180.0
 20
-115.0
 30
0.0
 11
-180.0
 21
-120.0
 31
0.0
  0
LINE
  8
0
 62
0
 10
-185.0
 20
-115.0
 30
0.0
 11
-180.0
 21
-115.0
 31
0.0
  0
LINE
  8
0
 62
0
 10
-185.0
 20
-90.0
 30
0.0
 11
-185.0
 21
-115.0
 31
0.0
  0
LINE
  8
0
 62
0
 10
-180.0
 20
-90.0
 30
0.0
 11
-185.0
 21
-90.0
 31
0.0
  0
LINE
  8
0
 62
0
 10
-179.99999999999997
 20
-40.0
 30
0.0
 11
-180.0
 21
-90.0
 31
0.0
  0
LINE
  8
0
 62
0
 10
-185.0
 20
-40.0
 30
0.0
 11
-180.0
 21
-40.0
 31
0.0
  0
ENDBLK
  0
ENDSEC
  0
SECTION
  2
ENTITIES
  0
INSERT
  2
FACEFEAT
  8
0
 62
0
 10
0.0
 20
0.0
 30
0.0
  0
ENDSEC
  0
EOF
