  0
SECTION
  2
HEADER
  9
$ACADVER
  1
AC1009
  9
$INSBASE
 10
0.0
 20
0.0
 30
0.0
  9
$EXTMIN
 10
0.0
 20
0.0
 30
0.0
  9
$EXTMAX
 10
0.0
 20
0.0
 30
0.0
  0
ENDSEC
  0
SECTION
  2
TABLES
  0
TABLE
  2
VPORT
 70
0
  0
ENDTAB
  0
TABLE
  2
LTYPE
 70
1
  0
LTYPE
  2
CONTINUOUS
 70
0
  3
Solid line
 72
65
 73
0
 40
0.0
  0
ENDTAB
  0
TABLE
  2
LAYER
 70
1
  0
LAYER
  2
0
 70
64
 62
7
  6
continuous
  0
ENDTAB
  0
TABLE
  2
STYLE
 70
1
  0
STYLE
  2
STANDARD
 70
0
 40
0
 41
1.0
 50
0.0
 71
0
 42
1
 3
ARIAL.TTF
 4

  0
ENDTAB
  0
TABLE
  2
VIEW
 70
0
  0
ENDTAB
  0
ENDSEC
  0
SECTION
  2
BLOCKS
  0
BLOCK
  8
0
  2
FACEFEAT
 70
0
 10
0.0
 20
0.0
 30
0.0
  3
FACEFEAT
  0
LINE
  8
0
 62
0
 10
50.0000000000013
 20
50.0
 30
0.0
 11
55.0000000000013
 21
50.0
 31
0.0
  0
LINE
  8
0
 62
0
 10
55.0000000000013
 20
-50.0
 30
0.0
 11
50.0000000000013
 21
-50.0
 31
0.0
  0
LINE
  8
0
 62
0
 10
50.0000000000013
 20
-50.0
 30
0.0
 11
50.0000000000013
 21
50.0
 31
0.0
  0
LINE
  8
0
 62
0
 10
55.00000000000002
 20
-119.99999999999999
 30
0.0
 11
55.000000000000014
 21
-49.999999999999986
 31
0.0
  0
LINE
  8
0
 62
0
 10
55.00000000000001
 20
50.0
 30
0.0
 11
55.0
 21
115.000001713634
 31
0.0
  0
LINE
  8
0
 62
0
 10
15.0000002235174
 20
120.000001788139
 30
0.0
 11
15.0000002235174
 21
115.000001713634
 31
0.0
  0
LINE
  8
0
 62
0
 10
45.0000006705523
 20
120.000001788139
 30
0.0
 11
15.0000002235174
 21
120.000001788139
 31
0.0
  0
LINE
  8
0
 62
0
 10
45.0000006705523
 20
115.000001713634
 30
0.0
 11
45.0000006705523
 21
120.000001788139
 31
0.0
  0
LINE
  8
0
 62
0
 10
55.0
 20
115.00000171363354
 30
0.0
 11
45.00000067055232
 21
115.00000137090686
 31
0.0
  0
LINE
  8
0
 62
0
 10
15.000000223517448
 20
115.00000034272672
 30
0.0
 11
5.0
 21
115.0
 31
0.0
  0
LINE
  8
0
 62
0
 10
15.0000002235174
 20
-114.99999992549405
 30
0.0
 11
45.0000006705522
 21
-114.99999999999986
 31
0.0
  0
LINE
  8
0
 62
0
 10
45.0000006705522
 20
-115.0
 30
0.0
 11
45.0000006705522
 21
-120.0
 31
0.0
  0
LINE
  8
0
 62
0
 10
15.0000002235174
 20
-120.0
 30
0.0
 11
15.0000002235174
 21
-114.999999925494
 31
0.0
  0
LINE
  8
0
 62
0
 10
5.0
 20
115.0
 30
0.0
 11
5.0
 21
90.0
 31
0.0
  0
LINE
  8
0
 62
0
 10
5.0
 20
90.0
 30
0.0
 11
0.00404923585456185
 21
90.0
 31
0.0
  0
LINE
  8
0
 62
0
 10
0.00404923585456284
 20
90.0
 30
0.0
 11
-7.780581040561785e-11
 21
39.99999830421879
 31
0.0
  0
LINE
  8
0
 62
0
 10
1.5543122344752197e-13
 20
39.9999983042188
 30
0.0
 11
5.000000000000001
 21
39.999999105930286
 31
0.0
  0
LINE
  8
0
 62
0
 10
5.0
 20
39.9999991059303
 30
0.0
 11
4.94012050676667
 21
-39.98797293595389
 31
0.0
  0
LINE
  8
0
 62
0
 10
4.94012050676667
 20
-39.9879729359539
 30
0.0
 11
0.08110188042415611
 21
-39.98433545118597
 31
0.0
  0
LINE
  8
0
 62
0
 10
0.0811018804241579
 20
-39.984335451186
 30
0.0
 11
-5.551115123125783e-17
 21
-90.0
 31
0.0
  0
LINE
  8
0
 62
0
 10
0.0
 20
-90.0
 30
0.0
 11
5.0
 21
-90.00000000000001
 31
0.0
  0
LINE
  8
0
 62
0
 10
5.0
 20
-90.00000000000011
 30
0.0
 11
5.0
 21
-115.0
 31
0.0
  0
LINE
  8
0
 62
0
 10
5.0
 20
-115.0
 30
0.0
 11
0.0010937485196826913
 21
-115.0
 31
0.0
  0
LINE
  8
0
 62
0
 10
0.001093748519682
 20
-115.0
 30
0.0
 11
3.686287386450715e-18
 21
-120.0
 31
0.0
  0
LINE
  8
0
 62
0
 10
0.0
 20
-120.0
 30
0.0
 11
15.0000002235174
 21
-120.00000000000006
 31
0.0
  0
LINE
  8
0
 62
0
 10
45.0000006705522
 20
-120.00000000000016
 30
0.0
 11
55.0
 21
-120.0000000000002
 31
0.0
  0
LINE
  8
0
 62
0
 10
11.0
 20
-112.0
 30
0.0
 11
11.0
 21
100.0
 31
0.0
  0
LINE
  8
0
 62
0
 10
11.0
 20
100.0
 30
0.0
 11
26.0
 21
100.0
 31
0.0
  0
LINE
  8
0
 62
0
 10
26.0
 20
100.0
 30
0.0
 11
26.0
 21
-112.0
 31
0.0
  0
LINE
  8
0
 62
0
 10
26.0
 20
-112.0
 30
0.0
 11
11.0
 21
-111.99999999999999
 31
0.0
  0
ENDBLK
  0
ENDSEC
  0
SECTION
  2
ENTITIES
  0
INSERT
  2
FACEFEAT
  8
0
 62
0
 10
0.0
 20
0.0
 30
0.0
  0
ENDSEC
  0
EOF
