  0
SECTION
  2
HEADER
  9
$ACADVER
  1
AC1009
  9
$INSBASE
 10
0.0
 20
0.0
 30
0.0
  9
$EXTMIN
 10
0.0
 20
0.0
 30
0.0
  9
$EXTMAX
 10
0.0
 20
0.0
 30
0.0
  0
ENDSEC
  0
SECTION
  2
TABLES
  0
TABLE
  2
VPORT
 70
0
  0
ENDTAB
  0
TABLE
  2
LTYPE
 70
1
  0
LTYPE
  2
CONTINUOUS
 70
0
  3
Solid line
 72
65
 73
0
 40
0.0
  0
ENDTAB
  0
TABLE
  2
LAYER
 70
1
  0
LAYER
  2
0
 70
64
 62
7
  6
continuous
  0
ENDTAB
  0
TABLE
  2
STYLE
 70
1
  0
STYLE
  2
STANDARD
 70
0
 40
0
 41
1.0
 50
0.0
 71
0
 42
1
 3
ARIAL.TTF
 4

  0
ENDTAB
  0
TABLE
  2
VIEW
 70
0
  0
ENDTAB
  0
ENDSEC
  0
SECTION
  2
BLOCKS
  0
BLOCK
  8
0
  2
FACEFEAT
 70
0
 10
0.0
 20
0.0
 30
0.0
  3
FACEFEAT
  0
LINE
  8
0
 62
0
 10
50.0
 20
75.0
 30
0.0
 11
55.0
 21
75.0
 31
0.0
  0
LINE
  8
0
 62
0
 10
55.0
 20
-75.0
 30
0.0
 11
50.0
 21
-75.0
 31
0.0
  0
LINE
  8
0
 62
0
 10
50.0
 20
-75.0
 30
0.0
 11
50.0
 21
75.0
 31
0.0
  0
LINE
  8
0
 62
0
 10
55.0000007185217
 20
135.0
 30
0.0
 11
50.0
 21
135.0
 31
0.0
  0
LINE
  8
0
 62
0
 10
50.0
 20
135.0
 30
0.0
 11
50.0
 21
165.0
 31
0.0
  0
LINE
  8
0
 62
0
 10
50.0
 20
165.0
 30
0.0
 11
55.0000007858832
 21
165.0
 31
0.0
  0
LINE
  8
0
 62
0
 10
50.0
 20
-135.0
 30
0.0
 11
55.0
 21
-135.0
 31
0.0
  0
LINE
  8
0
 62
0
 10
55.0
 20
-165.0
 30
0.0
 11
50.0
 21
-165.0
 31
0.0
  0
LINE
  8
0
 62
0
 10
50.0
 20
-165.0
 30
0.0
 11
50.0
 21
-135.0
 31
0.0
  0
LINE
  8
0
 62
0
 10
55.0
 20
-185.0
 30
0.0
 11
55.00000004490761
 21
-165.0
 31
0.0
  0
LINE
  8
0
 62
0
 10
55.000000785883195
 20
165.0
 30
0.0
 11
55.0000008195639
 21
180.0
 31
0.0
  0
LINE
  8
0
 62
0
 10
55.00000011226903
 20
-135.0
 30
0.0
 11
55.00000024699186
 21
-75.0
 31
0.0
  0
LINE
  8
0
 62
0
 10
55.00000058379894
 20
75.0
 30
0.0
 11
55.000000718521775
 21
135.0
 31
0.0
  0
LINE
  8
0
 62
0
 10
40.0
 20
-162.5
 30
0.0
 11
40.0
 21
-137.5
 31
0.0
  0
LINE
  8
0
 62
0
 10
40.0
 20
-137.5
 30
0.0
 11
45.0
 21
-137.5
 31
0.0
  0
LINE
  8
0
 62
0
 10
45.0
 20
-137.5
 30
0.0
 11
45.0
 21
-162.5
 31
0.0
  0
LINE
  8
0
 62
0
 10
45.0
 20
-162.5
 30
0.0
 11
40.0
 21
-162.5
 31
0.0
  0
LINE
  8
0
 62
0
 10
40.0
 20
137.5
 30
0.0
 11
40.0
 21
162.5
 31
0.0
  0
LINE
  8
0
 62
0
 10
40.0
 20
162.5
 30
0.0
 11
45.0
 21
162.5
 31
0.0
  0
LINE
  8
0
 62
0
 10
45.0
 20
162.5
 30
0.0
 11
45.0
 21
137.5
 31
0.0
  0
LINE
  8
0
 62
0
 10
45.0
 20
137.5
 30
0.0
 11
40.0
 21
137.5
 31
0.0
  0
LINE
  8
0
 62
0
 10
5.0
 20
180.0
 30
0.0
 11
5.0
 21
150.0
 31
0.0
  0
LINE
  8
0
 62
0
 10
15.0000002235174
 20
180.0
 30
0.0
 11
5.0
 21
180.0
 31
0.0
  0
LINE
  8
0
 62
0
 10
15.0000002235174
 20
185.0
 30
0.0
 11
15.0000002235174
 21
180.0
 31
0.0
  0
LINE
  8
0
 62
0
 10
45.0000006705522
 20
185.0
 30
0.0
 11
15.0000002235174
 21
185.0
 31
0.0
  0
LINE
  8
0
 62
0
 10
45.0000006705522
 20
180.0
 30
0.0
 11
45.0000006705522
 21
185.0
 31
0.0
  0
LINE
  8
0
 62
0
 10
55.0000008195639
 20
180.0
 30
0.0
 11
45.0000006705522
 21
180.0
 31
0.0
  0
LINE
  8
0
 62
0
 10
45.0000006705522
 20
-185.0
 30
0.0
 11
55.0
 21
-185.0
 31
0.0
  0
LINE
  8
0
 62
0
 10
45.0000006705523
 20
-180.0
 30
0.0
 11
45.00000067055227
 21
-185.0
 31
0.0
  0
LINE
  8
0
 62
0
 10
15.0000002235174
 20
-180.0
 30
0.0
 11
45.0000006705523
 21
-180.0
 31
0.0
  0
LINE
  8
0
 62
0
 10
15.0000002235174
 20
-185.0
 30
0.0
 11
15.000000223517436
 21
-180.0
 31
0.0
  0
LINE
  8
0
 62
0
 10
0.0
 20
-185.0
 30
0.0
 11
15.0000002235174
 21
-184.9999999999999
 31
0.0
  0
LINE
  8
0
 62
0
 10
0.0
 20
-180.0
 30
0.0
 11
0.0
 21
-185.0
 31
0.0
  0
LINE
  8
0
 62
0
 10
5.0
 20
-180.0
 30
0.0
 11
0.0
 21
-180.00000000000003
 31
0.0
  0
LINE
  8
0
 62
0
 10
5.0
 20
-150.0
 30
0.0
 11
5.0
 21
-180.0
 31
0.0
  0
LINE
  8
0
 62
0
 10
0.0
 20
-150.0
 30
0.0
 11
5.0
 21
-150.0
 31
0.0
  0
LINE
  8
0
 62
0
 10
0.0
 20
-50.0
 30
0.0
 11
0.0
 21
-150.0
 31
0.0
  0
LINE
  8
0
 62
0
 10
5.0
 20
-50.0
 30
0.0
 11
0.0
 21
-50.0
 31
0.0
  0
LINE
  8
0
 62
0
 10
5.0
 20
50.0
 30
0.0
 11
5.0
 21
-50.0
 31
0.0
  0
LINE
  8
0
 62
0
 10
0.0
 20
50.0
 30
0.0
 11
5.0
 21
50.0
 31
0.0
  0
LINE
  8
0
 62
0
 10
0.0
 20
150.0
 30
0.0
 11
0.0
 21
50.0
 31
0.0
  0
LINE
  8
0
 62
0
 10
5.0
 20
150.0
 30
0.0
 11
0.0
 21
150.0
 31
0.0
  0
ENDBLK
  0
ENDSEC
  0
SECTION
  2
ENTITIES
  0
INSERT
  2
FACEFEAT
  8
0
 62
0
 10
0.0
 20
0.0
 30
0.0
  0
ENDSEC
  0
EOF
